<svg width="20" height="19" viewBox="0 0 20 19" fill="none" xmlns="http://www.w3.org/2000/svg">
<path d="M1.91511 0L0.946916 0.968194L1.43101 1.44697L2.39389 2.40985L2.87267 2.89394L3.84086 1.92575L3.35676 1.44697L2.39389 0.484096L1.91511 0ZM17.1509 0L16.6721 0.484096L15.2304 1.92575L16.1933 2.89394L16.6721 2.40985L18.1138 0.968194L17.1509 0ZM9.53299 1.09587C6.53265 1.09587 4.08557 3.54295 4.08557 6.54329C4.08557 8.42649 4.91013 9.51171 5.5751 10.4374C6.24539 11.3577 6.80928 12.1397 6.80928 14.0335V15.3954C6.80928 16.2784 7.38913 17.0338 8.18178 17.3105C8.17646 17.353 8.17114 17.3956 8.17114 17.4381C8.17114 18.1882 8.78291 18.8 9.53299 18.8C10.2831 18.8 10.8949 18.1882 10.8949 17.4381C10.8949 17.3956 10.8949 17.353 10.8895 17.3105C11.6822 17.0285 12.2567 16.2784 12.2567 15.3954V14.0335C12.2567 12.1397 12.8206 11.3577 13.4909 10.4374C14.1559 9.51171 14.9804 8.42649 14.9804 6.54329C14.9804 3.54295 12.5333 1.09587 9.53299 1.09587ZM9.53299 2.45772C11.7992 2.45772 13.6186 4.27708 13.6186 6.54329C13.6186 8.06474 13.0813 8.68183 12.3844 9.62875C11.7832 10.4639 11.1874 11.6396 11.0225 13.3526H8.04346C7.87855 11.6396 7.28274 10.4639 6.68161 9.62875C5.98472 8.68183 5.44743 8.06474 5.44743 6.54329C5.44743 4.27708 7.26678 2.45772 9.53299 2.45772ZM0 6.54329V7.90515H2.72371V6.54329H0ZM16.3423 6.54329V7.90515H19.066V6.54329H16.3423ZM2.87267 11.5545L2.39389 12.0386L1.43101 13.0015L0.946916 13.4802L1.91511 14.4431L3.35676 13.0015L3.84086 12.5227L2.87267 11.5545ZM16.1933 11.5545L15.2304 12.5227L17.1509 14.4431L18.1138 13.4802L16.6721 12.0386L16.1933 11.5545ZM8.17114 14.7144H10.8949V15.3954C10.8949 15.7784 10.5969 16.0763 10.2139 16.0763H8.85207C8.46904 16.0763 8.17114 15.7784 8.17114 15.3954V14.7144Z" fill="white"/>
</svg>
