<svg width="18" height="18" viewBox="0 0 18 18" fill="none" xmlns="http://www.w3.org/2000/svg">
<path d="M1 0C0.448 0 0 0.448 0 1V3C0 3.552 0.448 4 1 4H3C3.552 4 4 3.552 4 3V1C4 0.448 3.552 0 3 0H1ZM8 0C7.448 0 7 0.448 7 1V3C7 3.552 7.448 4 8 4H10C10.552 4 11 3.552 11 3V1C11 0.448 10.552 0 10 0H8ZM15 0C14.448 0 14 0.448 14 1V3C14 3.552 14.448 4 15 4H17C17.552 4 18 3.552 18 3V1C18 0.448 17.552 0 17 0H15ZM1 7C0.448 7 0 7.448 0 8V10C0 10.552 0.448 11 1 11H3C3.552 11 4 10.552 4 10V8C4 7.448 3.552 7 3 7H1ZM8 7C7.448 7 7 7.448 7 8V10C7 10.552 7.448 11 8 11H10C10.552 11 11 10.552 11 10V8C11 7.448 10.552 7 10 7H8ZM15 7C14.448 7 14 7.448 14 8V10C14 10.552 14.448 11 15 11H17C17.552 11 18 10.552 18 10V8C18 7.448 17.552 7 17 7H15ZM1 14C0.448 14 0 14.448 0 15V17C0 17.552 0.448 18 1 18H3C3.552 18 4 17.552 4 17V15C4 14.448 3.552 14 3 14H1ZM8 14C7.448 14 7 14.448 7 15V17C7 17.552 7.448 18 8 18H10C10.552 18 11 17.552 11 17V15C11 14.448 10.552 14 10 14H8ZM15 14C14.448 14 14 14.448 14 15V17C14 17.552 14.448 18 15 18H17C17.552 18 18 17.552 18 17V15C18 14.448 17.552 14 17 14H15Z" fill="white"/>
</svg>
