<svg width="20" height="20" viewBox="0 0 20 20" fill="none" xmlns="http://www.w3.org/2000/svg">
<path d="M7.86217 0L7.51618 1.84152C6.18806 2.23214 5.00502 2.92411 4.03404 3.85045L2.26507 3.23103L0.222656 6.76897L1.63449 7.97991C1.47266 8.63281 1.33315 9.29688 1.33315 10C1.33315 10.7031 1.47266 11.3672 1.63449 12.0201L0.222656 13.231L2.26507 16.769L4.02846 16.144C5.00502 17.0815 6.18806 17.7679 7.51618 18.1641L7.86217 20H11.947L12.293 18.1641C13.6211 17.7679 14.8041 17.0759 15.7751 16.144L17.5385 16.769L19.5865 13.231L18.1691 12.0201C18.3309 11.3672 18.476 10.7031 18.476 10C18.476 9.29688 18.3365 8.63281 18.1747 7.97991L19.5865 6.76897L17.5441 3.23103L15.7807 3.85045C14.8041 2.91853 13.6211 2.23214 12.293 1.84152L11.947 0H7.86217ZM9.0452 1.42857H10.764L11.043 2.93527L11.5006 3.04688C12.918 3.37054 14.168 4.11272 15.1278 5.13951L15.4459 5.47991L16.8968 4.9721L17.7561 6.45647L16.5954 7.45536L16.7349 7.90179C16.9358 8.56027 17.0474 9.26897 17.0474 10C17.0474 10.731 16.9358 11.4342 16.7349 12.0982L16.5954 12.5446L17.7561 13.5435L16.8968 15.0279L15.4459 14.5145L15.1278 14.8605C14.168 15.8873 12.918 16.6295 11.5006 16.9587L11.043 17.0592L10.764 18.5714H9.0452L8.76618 17.0592L8.30859 16.9587C6.89118 16.6295 5.64118 15.8873 4.68136 14.8605L4.3577 14.5145L2.90681 15.0279L2.05301 13.5435L3.21373 12.5446L3.07422 12.0982C2.87333 11.4397 2.76172 10.731 2.76172 10C2.76172 9.26897 2.87333 8.56027 3.07422 7.90179L3.21373 7.45536L2.05301 6.45647L2.90681 4.9721L4.36328 5.47991L4.68136 5.13951C5.64118 4.11272 6.89118 3.37054 8.30859 3.04688L8.76618 2.93527L9.0452 1.42857ZM9.90457 5.71429C7.54408 5.71429 5.61886 7.63951 5.61886 10C5.61886 12.3605 7.54408 14.2857 9.90457 14.2857C12.2651 14.2857 14.1903 12.3605 14.1903 10C14.1903 7.63951 12.2651 5.71429 9.90457 5.71429ZM9.90457 7.14286C11.4894 7.14286 12.7617 8.41518 12.7617 10C12.7617 11.5848 11.4894 12.8571 9.90457 12.8571C8.31975 12.8571 7.04743 11.5848 7.04743 10C7.04743 8.41518 8.31975 7.14286 9.90457 7.14286Z" fill="white"/>
</svg>
