<svg width="19" height="19" viewBox="0 0 19 19" fill="none" xmlns="http://www.w3.org/2000/svg">
<path d="M2.17385 0C0.979363 0 0 0.927127 0 2.0579V13.0334C0 14.1641 0.979363 15.0913 2.17385 15.0913H4.34769V18.43L9.64078 15.0913H16.6662C17.8606 15.0913 18.84 14.1641 18.84 13.0334V2.0579C18.84 0.927127 17.8606 0 16.6662 0H2.17385ZM2.17385 1.37193H16.6662C17.0738 1.37193 17.3908 1.67204 17.3908 2.0579V13.0334C17.3908 13.4192 17.0738 13.7193 16.6662 13.7193H9.19922L5.79692 15.8683V13.7193H2.17385C1.76625 13.7193 1.44923 13.4192 1.44923 13.0334V2.0579C1.44923 1.67204 1.76625 1.37193 2.17385 1.37193Z" fill="white"/>
</svg>
