<svg width="33" height="33" viewBox="0 0 33 33" fill="none" xmlns="http://www.w3.org/2000/svg">
<path d="M21.7118 1C21.3704 1.03148 21.1185 1.33664 21.15 1.67813C21.1815 2.01961 21.4866 2.27148 21.8281 2.24H29.8687L16.9262 15.2019C16.7422 15.352 16.6574 15.5918 16.7107 15.8243C16.764 16.0544 16.9456 16.236 17.1757 16.2893C17.4082 16.3426 17.6479 16.2578 17.7981 16.0738L30.76 3.13125V11.1719C30.7575 11.3947 30.8738 11.603 31.0675 11.7168C31.2613 11.8282 31.4986 11.8282 31.6924 11.7168C31.8861 11.603 32.0024 11.3947 32 11.1719V1H21.8281C21.8087 1 21.7893 1 21.77 1C21.7506 1 21.7312 1 21.7118 1ZM2.24 7.2C1.91547 7.2 1.58367 7.31383 1.34875 7.54875C1.11383 7.78367 1 8.11547 1 8.44V30.76C1 31.0845 1.11383 31.4163 1.34875 31.6513C1.58367 31.8862 1.91547 32 2.24 32H24.56C24.8845 32 25.2163 31.8862 25.4512 31.6513C25.6861 31.4163 25.8 31.0845 25.8 30.76V12.16C25.8024 11.9372 25.6861 11.7289 25.4924 11.6151C25.2986 11.5037 25.0613 11.5037 24.8675 11.6151C24.6738 11.7289 24.5575 11.9372 24.56 12.16V30.76H2.24V8.44H20.84C21.0628 8.44242 21.2711 8.32617 21.3849 8.13242C21.4963 7.93867 21.4963 7.70133 21.3849 7.50758C21.2711 7.31383 21.0628 7.19758 20.84 7.2H2.24Z" fill="#161B25" stroke="black"/>
</svg>
