<svg width="212" height="25" viewBox="0 0 212 25" fill="none" xmlns="http://www.w3.org/2000/svg">
<path d="M9.55003 24.1136V16.8161H9.43461C9.25706 17.1948 9.00552 17.5707 8.68 17.9435C8.3604 18.3105 7.94314 18.6153 7.42822 18.858C6.91923 19.1006 6.29778 19.2219 5.56388 19.2219C4.52813 19.2219 3.59004 18.9556 2.7496 18.4229C1.91508 17.8844 1.2522 17.0942 0.760964 16.0526C0.275642 15.005 0.0329812 13.7206 0.0329812 12.1996C0.0329812 10.6371 0.28452 9.33795 0.787598 8.3022C1.29068 7.26053 1.95947 6.48224 2.79399 5.96733C3.63443 5.4465 4.55476 5.18608 5.555 5.18608C6.31849 5.18608 6.95474 5.31629 7.46373 5.5767C7.97865 5.8312 8.39295 6.1508 8.70663 6.53551C9.02623 6.9143 9.2689 7.28717 9.43461 7.65412H9.59442V5.36364H13.3231V24.1136H9.55003ZM6.76239 16.2124C7.372 16.2124 7.88691 16.0466 8.30713 15.7152C8.73327 15.3778 9.05879 14.9073 9.28369 14.3036C9.51452 13.6999 9.62993 12.9927 9.62993 12.1818C9.62993 11.371 9.51747 10.6667 9.29257 10.0689C9.06766 9.47112 8.74214 9.00947 8.31601 8.68395C7.88987 8.35843 7.372 8.19567 6.76239 8.19567C6.14094 8.19567 5.61714 8.36435 5.19101 8.7017C4.76487 9.03906 4.44231 9.50663 4.22332 10.1044C4.00434 10.7022 3.89484 11.3946 3.89484 12.1818C3.89484 12.9749 4.00434 13.6763 4.22332 14.2859C4.44823 14.8896 4.77079 15.363 5.19101 15.7063C5.61714 16.0437 6.14094 16.2124 6.76239 16.2124ZM27.7052 9.25213L24.2429 9.4652C24.1837 9.16927 24.0564 8.90294 23.8611 8.66619C23.6658 8.42353 23.4083 8.23118 23.0887 8.08913C22.7751 7.94117 22.3992 7.86719 21.9612 7.86719C21.3753 7.86719 20.8811 7.99148 20.4786 8.24006C20.0762 8.48272 19.875 8.80824 19.875 9.21662C19.875 9.54214 20.0052 9.81735 20.2656 10.0423C20.526 10.2672 20.9728 10.4477 21.6061 10.5838L24.0742 11.081C25.3999 11.3532 26.3883 11.7912 27.0394 12.3949C27.6904 12.9986 28.0159 13.7917 28.0159 14.7741C28.0159 15.6679 27.7526 16.4521 27.2258 17.1268C26.705 17.8015 25.9888 18.3282 25.0774 18.707C24.1718 19.0799 23.1272 19.2663 21.9435 19.2663C20.1383 19.2663 18.7001 18.8905 17.6289 18.1388C16.5635 17.3813 15.9391 16.3514 15.7556 15.0494L19.4755 14.854C19.5879 15.4045 19.8602 15.8247 20.2922 16.1147C20.7243 16.3988 21.2777 16.5408 21.9524 16.5408C22.6152 16.5408 23.1479 16.4136 23.5504 16.1591C23.9588 15.8987 24.1659 15.5643 24.1718 15.1559C24.1659 14.8126 24.0209 14.5315 23.7368 14.3125C23.4527 14.0876 23.0148 13.916 22.4229 13.7976L20.0614 13.3271C18.7297 13.0607 17.7384 12.5991 17.0873 11.9421C16.4422 11.2852 16.1196 10.4477 16.1196 9.42969C16.1196 8.55374 16.3564 7.79912 16.8299 7.16584C17.3093 6.53255 17.981 6.04427 18.8451 5.70099C19.7152 5.35772 20.7331 5.18608 21.8991 5.18608C23.6214 5.18608 24.9768 5.55007 25.9652 6.27805C26.9595 7.00604 27.5395 7.9974 27.7052 9.25213ZM36.3456 19.2841C35.0672 19.2841 33.9663 18.9822 33.043 18.3786C32.1197 17.7749 31.4095 16.9433 30.9123 15.8839C30.4152 14.8245 30.1666 13.6141 30.1666 12.2528C30.1666 10.8679 30.4211 9.64571 30.9301 8.58629C31.445 7.52095 32.1611 6.68939 33.0785 6.09162C34.0018 5.48793 35.079 5.18608 36.3101 5.18608C37.2689 5.18608 38.133 5.36364 38.9024 5.71875C39.6718 6.07386 40.3021 6.57102 40.7934 7.21023C41.2846 7.84943 41.5894 8.59517 41.7078 9.44744H39.6126C39.4528 8.82599 39.0977 8.27557 38.5473 7.79616C38.0028 7.31084 37.2689 7.06818 36.3456 7.06818C35.5288 7.06818 34.8127 7.28125 34.1971 7.70739C33.5875 8.1276 33.1111 8.72242 32.7678 9.49183C32.4304 10.2553 32.2618 11.152 32.2618 12.1818C32.2618 13.2353 32.4275 14.1527 32.7589 14.9339C33.0963 15.7152 33.5698 16.3219 34.1794 16.7539C34.7949 17.186 35.517 17.402 36.3456 17.402C36.8901 17.402 37.3843 17.3073 37.8282 17.1179C38.2721 16.9285 38.6479 16.6562 38.9557 16.3011C39.2634 15.946 39.4824 15.5199 39.6126 15.0227H41.7078C41.5894 15.8277 41.2964 16.5527 40.8289 17.1978C40.3672 17.837 39.7547 18.346 38.9912 18.7248C38.2336 19.0977 37.3517 19.2841 36.3456 19.2841ZM53.3644 13.4247V5.36364H55.4596V19H53.3644V16.6918H53.2223C52.9027 17.3842 52.4056 17.9731 51.7309 18.4585C51.0562 18.9379 50.2039 19.1776 49.1741 19.1776C48.3218 19.1776 47.5642 18.9911 46.9013 18.6183C46.2384 18.2395 45.7176 17.6713 45.3388 16.9137C44.96 16.1502 44.7706 15.1884 44.7706 14.0284V5.36364H46.8658V13.8864C46.8658 14.8807 47.144 15.6738 47.7003 16.2656C48.2626 16.8575 48.9787 17.1534 49.8488 17.1534C50.3696 17.1534 50.8993 17.0202 51.4379 16.7539C51.9824 16.4876 52.4381 16.0792 52.8051 15.5288C53.178 14.9783 53.3644 14.277 53.3644 13.4247ZM68.9561 8.41761L67.074 8.95028C66.9556 8.6366 66.781 8.33179 66.5502 8.03587C66.3253 7.73402 66.0175 7.48544 65.6269 7.29013C65.2363 7.09481 64.7362 6.99716 64.1266 6.99716C63.292 6.99716 62.5966 7.18951 62.0403 7.57422C61.4898 7.95301 61.2146 8.43537 61.2146 9.02131C61.2146 9.54214 61.404 9.95348 61.7828 10.2553C62.1616 10.5572 62.7534 10.8087 63.5584 11.0099L65.5825 11.5071C66.8017 11.803 67.7102 12.2558 68.308 12.8654C68.9058 13.4691 69.2047 14.2474 69.2047 15.2003C69.2047 15.9815 68.9798 16.6799 68.53 17.2955C68.0861 17.911 67.4646 18.3963 66.6656 18.7514C65.8666 19.1065 64.9374 19.2841 63.878 19.2841C62.4871 19.2841 61.336 18.9822 60.4245 18.3786C59.513 17.7749 58.936 16.893 58.6933 15.733L60.682 15.2358C60.8713 15.9697 61.2294 16.5201 61.7562 16.8871C62.2888 17.254 62.9843 17.4375 63.8425 17.4375C64.819 17.4375 65.5944 17.2304 66.1685 16.8161C66.7485 16.3958 67.0385 15.8928 67.0385 15.3068C67.0385 14.8333 66.8728 14.4368 66.5413 14.1172C66.2099 13.7917 65.7009 13.549 65.0143 13.3892L62.7416 12.8565C61.4928 12.5606 60.5754 12.1019 59.9895 11.4805C59.4095 10.8531 59.1195 10.0689 59.1195 9.12784C59.1195 8.35843 59.3355 7.67779 59.7675 7.08594C60.2055 6.49408 60.8003 6.02947 61.552 5.69212C62.3096 5.35476 63.1677 5.18608 64.1266 5.18608C65.476 5.18608 66.5354 5.48201 67.3048 6.07386C68.0802 6.66572 68.6306 7.44697 68.9561 8.41761ZM78.2889 5.36364V7.1392H71.2222V5.36364H78.2889ZM73.2818 2.09659H75.377V15.0938C75.377 15.6856 75.4628 16.1295 75.6345 16.4254C75.812 16.7154 76.0369 16.9107 76.3092 17.0114C76.5873 17.1061 76.8803 17.1534 77.1881 17.1534C77.4189 17.1534 77.6083 17.1416 77.7563 17.1179C77.9042 17.0883 78.0226 17.0646 78.1114 17.0469L78.5375 18.929C78.3955 18.9822 78.1972 19.0355 77.9427 19.0888C77.6882 19.148 77.3656 19.1776 76.975 19.1776C76.3832 19.1776 75.8031 19.0503 75.235 18.7958C74.6727 18.5413 74.2051 18.1536 73.8323 17.6328C73.4653 17.112 73.2818 16.455 73.2818 15.6619V2.09659ZM86.8339 19.2841C85.6028 19.2841 84.5227 18.9911 83.5934 18.4052C82.6701 17.8192 81.9481 16.9995 81.4272 15.946C80.9123 14.8925 80.6549 13.6615 80.6549 12.2528C80.6549 10.8324 80.9123 9.59245 81.4272 8.53303C81.9481 7.4736 82.6701 6.65092 83.5934 6.06499C84.5227 5.47905 85.6028 5.18608 86.8339 5.18608C88.0649 5.18608 89.1421 5.47905 90.0654 6.06499C90.9946 6.65092 91.7167 7.4736 92.2316 8.53303C92.7524 9.59245 93.0128 10.8324 93.0128 12.2528C93.0128 13.6615 92.7524 14.8925 92.2316 15.946C91.7167 16.9995 90.9946 17.8192 90.0654 18.4052C89.1421 18.9911 88.0649 19.2841 86.8339 19.2841ZM86.8339 17.402C87.769 17.402 88.5384 17.1623 89.1421 16.6829C89.7458 16.2035 90.1926 15.5732 90.4826 14.7919C90.7727 14.0107 90.9177 13.1643 90.9177 12.2528C90.9177 11.3414 90.7727 10.4921 90.4826 9.7049C90.1926 8.91773 89.7458 8.28149 89.1421 7.79616C88.5384 7.31084 87.769 7.06818 86.8339 7.06818C85.8987 7.06818 85.1293 7.31084 84.5256 7.79616C83.9219 8.28149 83.4751 8.91773 83.1851 9.7049C82.895 10.4921 82.75 11.3414 82.75 12.2528C82.75 13.1643 82.895 14.0107 83.1851 14.7919C83.4751 15.5732 83.9219 16.2035 84.5256 16.6829C85.1293 17.1623 85.8987 17.402 86.8339 17.402ZM96.2111 19V5.36364H98.2352V7.49432H98.4128C98.6969 6.76634 99.1556 6.20111 99.7888 5.79865C100.422 5.39027 101.183 5.18608 102.07 5.18608C102.97 5.18608 103.719 5.39027 104.317 5.79865C104.92 6.20111 105.391 6.76634 105.728 7.49432H105.87C106.219 6.79001 106.743 6.23071 107.442 5.81641C108.14 5.39619 108.977 5.18608 109.954 5.18608C111.173 5.18608 112.17 5.56783 112.946 6.33132C113.721 7.0889 114.109 8.26965 114.109 9.87358V19H112.014V9.87358C112.014 8.86742 111.738 8.14832 111.188 7.71626C110.638 7.28421 109.989 7.06818 109.244 7.06818C108.285 7.06818 107.542 7.35819 107.015 7.93821C106.489 8.51231 106.225 9.24029 106.225 10.1222V19H104.095V9.66051C104.095 8.88518 103.843 8.26077 103.34 7.78729C102.837 7.30788 102.189 7.06818 101.396 7.06818C100.851 7.06818 100.342 7.21319 99.8687 7.5032C99.4012 7.79321 99.0224 8.19567 98.7324 8.71058C98.4483 9.21958 98.3062 9.80848 98.3062 10.4773V19H96.2111ZM123.657 19.2841C122.343 19.2841 121.21 18.9941 120.257 18.4141C119.31 17.8281 118.579 17.0114 118.064 15.9638C117.555 14.9103 117.3 13.6851 117.3 12.2884C117.3 10.8916 117.555 9.66051 118.064 8.59517C118.579 7.52391 119.295 6.68939 120.212 6.09162C121.136 5.48793 122.213 5.18608 123.444 5.18608C124.154 5.18608 124.855 5.30445 125.548 5.54119C126.24 5.77793 126.871 6.16264 127.439 6.69531C128.007 7.22206 128.46 7.92045 128.797 8.79048C129.135 9.66051 129.303 10.7318 129.303 12.0043V12.892H118.792V11.081H127.173C127.173 10.3116 127.019 9.625 126.711 9.02131C126.409 8.41761 125.977 7.94117 125.415 7.59197C124.858 7.24278 124.201 7.06818 123.444 7.06818C122.609 7.06818 121.887 7.27533 121.278 7.68963C120.674 8.09801 120.209 8.63068 119.884 9.28764C119.558 9.9446 119.396 10.6489 119.396 11.4006V12.608C119.396 13.6378 119.573 14.5108 119.928 15.2269C120.289 15.9371 120.789 16.4787 121.429 16.8516C122.068 17.2185 122.811 17.402 123.657 17.402C124.207 17.402 124.705 17.325 125.148 17.1712C125.598 17.0114 125.986 16.7746 126.311 16.4609C126.637 16.1413 126.888 15.7448 127.066 15.2713L129.09 15.8395C128.877 16.526 128.519 17.1297 128.016 17.6506C127.513 18.1655 126.891 18.5679 126.152 18.858C125.412 19.142 124.58 19.2841 123.657 19.2841ZM132.49 19V5.36364H134.515V7.4233H134.657C134.905 6.74858 135.355 6.20111 136.006 5.78089C136.657 5.36068 137.391 5.15057 138.208 5.15057C138.362 5.15057 138.554 5.15353 138.785 5.15945C139.016 5.16536 139.19 5.17424 139.309 5.18608V7.31676C139.238 7.29901 139.075 7.27237 138.82 7.23686C138.572 7.19543 138.308 7.17472 138.03 7.17472C137.367 7.17472 136.775 7.3138 136.255 7.59197C135.74 7.86423 135.331 8.24302 135.029 8.72834C134.734 9.20774 134.586 9.75521 134.586 10.3707V19H132.49ZM141.384 24.1136V5.36364H145.112V7.65412H145.281C145.447 7.28717 145.687 6.9143 146 6.53551C146.32 6.1508 146.734 5.8312 147.243 5.5767C147.758 5.31629 148.397 5.18608 149.161 5.18608C150.155 5.18608 151.072 5.4465 151.913 5.96733C152.753 6.48224 153.425 7.26053 153.928 8.3022C154.431 9.33795 154.683 10.6371 154.683 12.1996C154.683 13.7206 154.437 15.005 153.946 16.0526C153.461 17.0942 152.798 17.8844 151.957 18.4229C151.123 18.9556 150.188 19.2219 149.152 19.2219C148.418 19.2219 147.794 19.1006 147.279 18.858C146.77 18.6153 146.352 18.3105 146.027 17.9435C145.701 17.5707 145.453 17.1948 145.281 16.8161H145.166V24.1136H141.384ZM145.086 12.1818C145.086 12.9927 145.198 13.6999 145.423 14.3036C145.648 14.9073 145.974 15.3778 146.4 15.7152C146.826 16.0466 147.344 16.2124 147.953 16.2124C148.569 16.2124 149.09 16.0437 149.516 15.7063C149.942 15.363 150.265 14.8896 150.484 14.2859C150.708 13.6763 150.821 12.9749 150.821 12.1818C150.821 11.3946 150.711 10.7022 150.492 10.1044C150.273 9.50663 149.951 9.03906 149.525 8.7017C149.099 8.36435 148.575 8.19567 147.953 8.19567C147.338 8.19567 146.817 8.35843 146.391 8.68395C145.971 9.00947 145.648 9.47112 145.423 10.0689C145.198 10.6667 145.086 11.371 145.086 12.1818ZM163.365 19.2663C161.986 19.2663 160.794 18.9734 159.788 18.3874C158.787 17.7956 158.015 16.9729 157.47 15.9194C156.926 14.86 156.654 13.6319 156.654 12.2351C156.654 10.8265 156.926 9.59541 157.47 8.5419C158.015 7.48248 158.787 6.6598 159.788 6.07386C160.794 5.48201 161.986 5.18608 163.365 5.18608C164.744 5.18608 165.934 5.48201 166.934 6.07386C167.94 6.6598 168.716 7.48248 169.26 8.5419C169.805 9.59541 170.077 10.8265 170.077 12.2351C170.077 13.6319 169.805 14.86 169.26 15.9194C168.716 16.9729 167.94 17.7956 166.934 18.3874C165.934 18.9734 164.744 19.2663 163.365 19.2663ZM163.383 16.3366C164.01 16.3366 164.534 16.1591 164.954 15.804C165.375 15.4429 165.691 14.9517 165.904 14.3303C166.123 13.7088 166.233 13.0015 166.233 12.2085C166.233 11.4154 166.123 10.7081 165.904 10.0866C165.691 9.4652 165.375 8.97396 164.954 8.61293C164.534 8.25189 164.01 8.07138 163.383 8.07138C162.75 8.07138 162.217 8.25189 161.785 8.61293C161.359 8.97396 161.036 9.4652 160.817 10.0866C160.604 10.7081 160.498 11.4154 160.498 12.2085C160.498 13.0015 160.604 13.7088 160.817 14.3303C161.036 14.9517 161.359 15.4429 161.785 15.804C162.217 16.1591 162.75 16.3366 163.383 16.3366ZM172.536 19V5.36364H176.203V7.7429H176.345C176.593 6.89654 177.011 6.25734 177.596 5.82528C178.182 5.38731 178.857 5.16832 179.621 5.16832C179.81 5.16832 180.014 5.18016 180.233 5.20383C180.452 5.22751 180.645 5.26006 180.81 5.30149V8.65731C180.633 8.60405 180.387 8.5567 180.073 8.51527C179.76 8.47384 179.473 8.45312 179.212 8.45312C178.656 8.45312 178.159 8.57446 177.721 8.81712C177.289 9.05386 176.945 9.3853 176.691 9.81143C176.442 10.2376 176.318 10.7288 176.318 11.2852V19H172.536ZM190.702 5.36364V8.20455H182.49V5.36364H190.702ZM184.355 2.09659H188.137V14.8097C188.137 15.1589 188.19 15.4311 188.296 15.6264C188.403 15.8158 188.551 15.949 188.74 16.0259C188.936 16.1029 189.161 16.1413 189.415 16.1413C189.593 16.1413 189.77 16.1265 189.948 16.0969C190.125 16.0614 190.261 16.0348 190.356 16.017L190.951 18.8313C190.762 18.8905 190.495 18.9586 190.152 19.0355C189.809 19.1184 189.391 19.1687 188.9 19.1864C187.989 19.2219 187.19 19.1006 186.503 18.8224C185.823 18.5443 185.293 18.1122 184.914 17.5263C184.535 16.9403 184.349 16.2005 184.355 15.3068V2.09659ZM197.054 19.2575C196.184 19.2575 195.409 19.1065 194.728 18.8047C194.048 18.4969 193.509 18.0442 193.113 17.4464C192.722 16.8427 192.527 16.091 192.527 15.1914C192.527 14.4338 192.666 13.7976 192.944 13.2827C193.222 12.7678 193.601 12.3535 194.08 12.0398C194.56 11.7261 195.104 11.4893 195.714 11.3295C196.329 11.1697 196.975 11.0573 197.649 10.9922C198.442 10.9093 199.082 10.8324 199.567 10.7614C200.052 10.6844 200.404 10.572 200.623 10.424C200.842 10.276 200.952 10.0571 200.952 9.76705V9.71378C200.952 9.15152 200.774 8.7165 200.419 8.40874C200.07 8.10097 199.573 7.94709 198.928 7.94709C198.247 7.94709 197.706 8.09801 197.303 8.39986C196.901 8.69579 196.634 9.06866 196.504 9.51847L193.006 9.23438C193.184 8.40578 193.533 7.68963 194.054 7.08594C194.575 6.47633 195.246 6.00876 196.069 5.68324C196.898 5.3518 197.856 5.18608 198.945 5.18608C199.703 5.18608 200.428 5.27486 201.121 5.45241C201.819 5.62997 202.437 5.90518 202.976 6.27805C203.52 6.65092 203.95 7.13033 204.263 7.71626C204.577 8.29628 204.734 8.99171 204.734 9.80256V19H201.147V17.109H201.041C200.822 17.5352 200.529 17.911 200.162 18.2365C199.795 18.5561 199.354 18.8076 198.839 18.9911C198.324 19.1687 197.729 19.2575 197.054 19.2575ZM198.138 16.6474C198.694 16.6474 199.185 16.5379 199.611 16.3189C200.037 16.094 200.372 15.7921 200.614 15.4134C200.857 15.0346 200.978 14.6055 200.978 14.1261V12.679C200.86 12.7559 200.697 12.8269 200.49 12.892C200.289 12.9512 200.061 13.0075 199.807 13.0607C199.552 13.1081 199.298 13.1525 199.043 13.1939C198.789 13.2294 198.558 13.262 198.351 13.2915C197.907 13.3567 197.519 13.4602 197.188 13.6023C196.856 13.7443 196.599 13.9367 196.415 14.1793C196.232 14.4161 196.14 14.712 196.14 15.0671C196.14 15.582 196.326 15.9756 196.699 16.2479C197.078 16.5142 197.558 16.6474 198.138 16.6474ZM211.45 0.818181V19H207.668V0.818181H211.45Z" fill="white"/>
</svg>
